<svg viewBox="0 0 1200 630" preserveAspectRatio="xMidYMid slice" xmlns="http://www.w3.org/2000/svg" role="img" aria-label="blogger-to-github">
  <defs>
    <linearGradient id="bg-bloggertogithub" x1="0" y1="0" x2="1" y2="1">
      <stop offset="0" stop-color="#0F1E2A"/>
      <stop offset="0.5" stop-color="#3D6B8F"/>
      <stop offset="1" stop-color="#2E7D5A"/>
    </linearGradient>
  </defs>
  <rect width="1200" height="630" fill="url(#bg-bloggertogithub)"/>
  <circle cx="1075" cy="95" r="240" fill="#ffffff" opacity="0.05"/>
  <circle cx="150" cy="555" r="180" fill="#ffffff" opacity="0.05"/>
  <rect x="286" y="181" width="268" height="268" rx="44" fill="#ffffff"/>
  <g transform="translate(310,205) scale(9.16666666666667)"><path d="M21.976 24H2.026C.9 24 0 23.1 0 21.976V2.026C0 .9.9 0 2.025 0H22.05C23.1 0 24 .9 24 2.025v19.95C24 23.1 23.1 24 21.976 24zM12 3.975H9c-2.775 0-5.025 2.25-5.025 5.025v6c0 2.774 2.25 5.024 5.025 5.024h6c2.774 0 5.024-2.25 5.024-5.024v-3.975c0-.6-.45-1.05-1.05-1.05H18c-.524 0-.976-.45-.976-.976 0-2.776-2.25-5.026-5.024-5.026zm3.074 12H9c-.525 0-.975-.45-.975-.975s.45-.976.975-.976h6.074c.526 0 .977.45.977.976s-.45.976-.975.976zm-2.55-7.95c.527 0 .976.45.976.975s-.45.975-.975.975h-3.6c-.525 0-.976-.45-.976-.975s.45-.975.975-.975h3.6z" fill="#0F1E2A"/></g>  <rect x="646" y="181" width="268" height="268" rx="44" fill="#ffffff"/>
  <g transform="translate(670,205) scale(9.16666666666667)"><path d="M12 .297c-6.63 0-12 5.373-12 12 0 5.303 3.438 9.8 8.205 11.385.6.113.82-.258.82-.577 0-.285-.01-1.04-.015-2.04-3.338.724-4.042-1.61-4.042-1.61C4.422 18.07 3.633 17.7 3.633 17.7c-1.087-.744.084-.729.084-.729 1.205.084 1.838 1.236 1.838 1.236 1.07 1.835 2.809 1.305 3.495.998.108-.776.417-1.305.76-1.605-2.665-.3-5.466-1.332-5.466-5.93 0-1.31.465-2.38 1.235-3.22-.135-.303-.54-1.523.105-3.176 0 0 1.005-.322 3.3 1.23.96-.267 1.98-.399 3-.405 1.02.006 2.04.138 3 .405 2.28-1.552 3.285-1.23 3.285-1.23.645 1.653.24 2.873.12 3.176.765.84 1.23 1.91 1.23 3.22 0 4.61-2.805 5.625-5.475 5.92.42.36.81 1.096.81 2.22 0 1.606-.015 2.896-.015 3.286 0 .315.21.69.825.57C20.565 22.092 24 17.592 24 12.297c0-6.627-5.373-12-12-12" fill="#0F1E2A"/></g>  <g stroke="#94EFFF" stroke-width="7" stroke-linecap="round">
    <line x1="570" y1="315" x2="616" y2="315"/>
  </g>
  <path d="M 612 299 L 638 315 L 612 331 Z" fill="#94EFFF"/>
  <text x="1140" y="584" text-anchor="end" font-family="Figtree, -apple-system, Segoe UI, Roboto, sans-serif" font-size="20" font-weight="700" letter-spacing="3" fill="#ffffff" opacity="0.14">WINGATE365</text>
</svg>